<svg xmlns="http://www.w3.org/2000/svg" width="512" height="512" viewBox="0 0 512 512"><g fill="#202020"><path d="M437.768 278.07c1.971-2.049 3.942-3.582 3.285-2.728 3.826-4.359 4.218-4.144 4.231-5.189 2.374-2.881 5.527-5.332 2.748-2.135l7.259-7.89-4.609 4.449c.658-1.36 5.169-5.253 7.268-7.65l1.214 1.57-1.373-.902-.253-.165-.002-.003.023-.047.052-.104a2.041 2.041 0 00.182-.464c.041-.178.041-.315.033-.462-.075.181-.128.315-.211.468l-.13.224-.098.164-.043.071-.014.021.001-.001 1.832 1.2-1.389-1.745-6.949 7.021.268-.552c-1.714 2.02-5.404 5.582-6.729 6.786.129-.271-.112-.258 1.32-1.717-9.932 9.866-1.916 3.417-9.987 11.773a42.534 42.534 0 012.071-1.993zM428.31 285.429l-2.915 3.99-5.932 5.654c.119.252-3.95 4.621-.93 1.928.529-.588 1.578-1.747 2.487-2.622-.245 1.048-7.504 7.903-5.396 6.607 4.476-4.688 5.267-5.303 7.761-8.448 4.237-4.163 7.389-7.13 9.496-8.943 1.186-1.308 1.115-1.729 2.649-3.362l-1.06 1.091-.774-.433c-1.194 1.448-2.503 2.638-3.956 4.115l6.076-7.485c-2.751 1.622-9.082 8.616-11.979 11.044 3.812-2.794-2.376 2.881 4.473-3.136zM435.531 280.233l.166-.168-.166.168zM172.3 248.586c2.039-.015 2.64-.217 2.934-.318l-22.957.016c.719.224 7.332.501 2.913.635 1.971.248 7.973.036 8.843-.267l-1.664.342c5.289-.438 8.902.422 5.453.681l.446-.004 14.65-1.685c-5.378-.099-4.142.58-10.618.6zM441.196 231.619c-2.158-2.048-2.474-2.25-2.294-1.952.797.71 1.565 1.375 2.294 1.952zM186.343 247.59l4.589-.527c-1.838.142-3.452.332-4.589.527zM154.552 255.61c-.009.028-.059.053.062.09l2.061-.27h-.053l-2.07.18zM290.509 245.61l1.506-.037c-.548.003-1.044.018-1.506.037zM92.361 258.623l10.207-.507c-1.36.239 3.563.168 1.413.448.778-.039 4.425-.134 3.43-.258l-2.082.016c5.382-.699 2.123-.968 11.046-1.5-5.541-.416-7.97-.035-10.904.283l-2.671.096-8.487.979-1.952.443zM405.405 208.755l.117.041c-.086-.059-.112-.059-.117-.041zM405.995 208.953l-.474-.157c.468.308 2.029 1.718.474.157zM184.657 248.043c.14-.13.728-.289 1.686-.453l-3.424.396 1.738.057z"/><path d="M176.867 249.571l-8.599.1-3.17.363c3.292-.138 7.14-.232 11.769-.463zM276.928 245.198c17.811-.107-4.375.823 3.809 1.021 4.945-.097 6.689-.487 9.772-.61-14.126.334 1.915-1.287-12.332-1.08 2.026-.707 10.274-.771 15.108-.579 5.472.681-4.781.499-6.021 1.167 5.717-.111 4.71-.235 7.136-.615 8.977.158 18.573-.837 23.934.107 6.497-.15 6.07-.476 9.807-.835.744-.729-9.664-.383-12.072-.957.499.062 1.473.185 1.19.287l-5.618-.153c5.333.254-.74.729-3.591.786-2.073.015-6.194.047-5.627-.154l3.139-.157c-4.04-.23-8.914.532-13.181.137-.224-.164 1.391-.241 1.636-.342-4.781.498-9.392.469-16.469.821l4.103-.723c-5.661.8-18.479.573-27.363.15.985.123 2.761.208 1.695.348-5.218.173-9.159-.323-6.742-.704-5.097.6-19.422-.505-26.369.274l-31.94 3.675a72.497 72.497 0 013.796-.199c2.903.635 4.468.558-.62 1.156 4.995-.336 3.086-.846 10.591-.872-2.944.319-3.688 1.048 3.501 1.123 17.972-.634 29.882-2.439 46.667-3.361.62.489 13.797.352 20.203.467-2.445.525-7.198.675-12.131.781l12.378.07 1.611-1.029z"/><path d="M235.197 246.842c.45.044.914.068 1.392.091-.255-.04-.67-.071-1.392-.091zM261.436 246.143c-.063.019-.04.033-.063.053l1.565-.038-1.502-.015zM188.868 249.148l-2.922.319 2.274-.128c.756-.065 1.116-.132.648-.191zM185.274 248.287l.57-.201-1.187-.043c-.124.109.009.199.617.244zM344.988 249.621l1.707-.106c-1.029.009-1.472.052-1.707.106z"/><path d="M296.768 246.029c-6.193.047-.74.73-9.503.733l2.572.044c-6.287.313-17.337.169-24.808.194.843-.291-4.529-.354-3.656-.805-5.106.106-10.163.207-12.793.672-3.164-.152-7.969.258-11.991.065 1.698.273-5.726.924 4.062.59-.79.037-.294.1-1.075.138 6.306.381 8.834-.265 14.266-.274 3.247.269-5.311.435-2.247.543 6.783-.251 21.284.325 20.834-.69 4.937-.071 5.618.152 7.09.338 7.809-1.081 28.978.464 28.906-.918-2.851.055-7.495.025-11.679.321l.022-.951zM199.27 249.076zM121.106 245.073l2.59-.903c14.749-.216 20.082.038 32.978.002.985.124-.58.202-1.373.242 9.066-.104 22.632.085 29.231-.33 2.885.007 10.458.294 7.591.56 1.404-.08 3.009-.157 4.623-.128.428.324-3.613.093-3.706.358 1.28.022 1.778.085 2.073-.018-2.153.279 2.234 1.102-7.808 1.081-3.889-.759 6.965-.088 4.669-.925-3.331-.006-2.944.318-3.229.42-4.245-.019-4.133-.229-3.907-.42-1.626.26-6.965-.102-9.212.292-8.254.065.45-.628-4.942-.619l-3.108.848-8.964-.16c-12.977.298 1.856 1.465-12.977 1.944 1.949-.442-4-1.186-10.904-1.362 4.13-.031 11.765-.584 17.098-.332-7.517-.664 10.346-.08 6.445-.84-3.715.359-9.909.408-14.74.214l1.583-.078c-5.138-.09-9.026.797-16.116.458-3.523.027-2.863-.212-2.243-.41-2.978.127-5.643.293-5.652.106zm7.675-.178l4.713.084c-1.119-.14-2.876-.135-4.713-.084zM381.779 332.116l1.061-.964c-.25.193-.646.565-1.061.964zM146.887 256.801l2.73.028a84.67 84.67 0 00-2.73-.028zM208.155 254.001l3.988-.198a47.04 47.04 0 00-3.988.198zM384.5 326.294l.099-.09.413-.477-.512.567zM331.036 255.985c.607.071 1.289.136 2.222.187-.111-.085-.941-.145-2.222-.187zM207.42 254.038l.242.016.493-.053-.735.037zM119.899 254.329l-1.748.084c.825-.016 1.33-.048 1.748-.084zM123.747 256.732c-.629.021-1.23.047-1.698.084l1.698-.084zM66.33 256.916l3.675-.123c-1.807.013-2.885.061-3.675.123zM114.021 256.177c-.214.039-.428.077-.57.115.508-.026.75-.076.57-.115zM400.078 317.388l-.155.16.004.136.151-.296zM405.525 310.197l2.233-2.333a55.873 55.873 0 00-2.233 2.333zM384.421 257.347c.973.123 3.257.27 2.19.41 1.863-.177 1.739-.606-2.19-.41zM391.16 333.808c.334-.495.786-1.072 1.243-1.65-.874 1.05-1.646 1.965-1.243 1.65zM392.404 332.158l1.273-1.544a50.994 50.994 0 00-1.273 1.544zM359.667 264.383c-.242-.059-.617-.105-1.125-.121.149.115.555.139 1.125.121z"/><path d="M409.698 306.116c.268-.553 9.884-10.79 1.461-2.514-.122-.767 5.151-5.563 7.268-7.899-1.722 1.513.519-1.089-.131-.757-1.051 1.157-2.235 2.598-4.093 4.392-1.042.636 1.59-2.271 3.828-4.358-2.899 2.43 3.028-3.733-.923-.143-7.903 8.218-13.438 14.076-18.457 20.394 4.487-4.701 9.495-9.974 13.442-13.563l-1.199 1.969c-4.598 3.921-6.975 6.803-11.199 10.956l9.614-9.206c4.729-4.088 1.854-1.065-1.552 2.479.86-.852 1.656-1.602 1.941-1.75zM406.733 315.832l.169-.146c.124-.152.286-.332.357-.436l-.526.582zM65.652 245.906l1.143-.206c-.954.093-1.249.158-1.143.206zM399.257 319.582l.006-.007c-.06.068-.074.083-.006.007zM58.47 266.135c-.04.015-.081.031-.151.047.102-.016.102-.033.151-.047zM66.074 254.406c-.053-.025-.068-.049-.192-.074-.607.03-.312.055.192.074zM58.492 266.084c0 .018.019.033-.022.051.022-.018.072-.036.022-.051zM196.799 264.088s-.437-.094-1.125-.184c-.267.051 0 .109 1.125.184zM169.497 263.282l-.499-.06.499.06zM377.964 254.898a96.166 96.166 0 00-3.22.029 64.67 64.67 0 003.22-.029zM58.319 266.181c-.285.059-.691.117-1.36.191.737-.077 1.128-.138 1.36-.191zM238.425 261.34l-.84.059.499.027.341-.086zM252.672 261.74c-.487.061-.71.125-.982.182 5.084-.227 14.426.02 15.533-.56-1.726.015-10.671-.325-9.146-.665-3.545.145-8.785-.261-10.693-.166 5.819.316.629.488-3.3.684-3.573-.168.672-.465-2.404-.572l-8.267.064 7.201.076-2.188.557.734-.053c12.182-.26 1.034.814 13.512.453zM251.689 261.922c-.762.035-1.432.077-1.952.137 1.149-.01 1.596-.067 1.952-.137zM301.464 262.84zM158.989 249.942c-.213-.164-7.313-.502-7.186-.074l6.361.134.825-.06zM438.053 260.351l-2.551-.01-.578.066c.441.063 2.209-.015 3.129-.056z"/><path d="M260.269 260.496c-1.301.066-1.881.133-2.193.201.842-.033 1.62-.089 2.193-.201zM436.913 261.369c.777.123 1.808.309 1.673.473 1.34.002 2.649-.116 4.127-.212-.236.286-.502.597-.827.952.314-.326.64-.662.98-1.017a76.964 76.964 0 01-5.953-.196zM441.791 262.687l.095-.105-.095.105z"/><path d="M163.212 250.123l1.887-.09-.982.114 4.883.13 2.011-.068a3.057 3.057 0 0 0-.712.107l1.564.05c3.889-.443 13.565-.767 16.357-1.027 3.693-.189 8.214-.297 11.049-.263-2.627-.009-6.117.08-5.069.325 5.336.255 7.929.99 17.138.358l-5.401.01 12.143-.951c4.254.394-6.061.474-7.746.817 9.444-.469 17.299.783 21.677-.04.617.488 1.651 1.303 7.849 1.254-4.468-.557 3.715-.358.049-.954 2.141-.279 6.913.176 7.27-.189l-.58.202c10.581.773 14.046-.438 18.572-.837 12.67-.199 18.489.117 28.823.035.405.327 3.219 1.227 7.365 1.192 1.927-.442 11.278-.647 12.232-1.215-7.411-.236-6.063.476-10.501.608-3.693-.595-.334-.588-5.379-.943 4.071.231 18.396-.31 22.854.248l-1.573.078c7.117.339 8.478 1.741 20.335.893l5.658-.348c-.272.057-.304.123-.449.174 9.262.059 6.733.704 16.958.195-.79.039-.294.102-1.097.14 5.828.318 11.706-.321 16.112-.455 2.689.473-.638.465-2.302.808 10.253.183 21.317-.628 27.686-1.205l6.608.277c-3.919.195-8.71.694-7.514.979 3.635-.095 2.932-.318 8.072-.228-.877.303-3.034.584-5.451.965 10.632.506 2.377-1.072 9.816-.145 3.34.006 5.28-.436 5.646-.801l6.035.478c.676-.465 7.454-.492 11.787-.562.1-.1-.996-.224-2.227-.301-1.237-.077-2.622-.105-3.341-.016-.012-.183 1.026-.317 2.349-.405a67.807 67.807 0 0 1 4.317-.125c.62.204 1.783.316 3.277.377-1.498-1.661-4.425-4.489-6.456-6.542-2.026-2.048-3.367-3.53-1.876-2.682l-8.496-8.206-9.187-8.943c-6.026-5.863-11.607-11.266-15.263-14.633-2.125-2.506-6.835-7.236-3.683-4.731-8.562-8.567-13.687-12.277-21.999-20.966-.617-.79 3.849 3.837 3.776 3.305a96.918 96.918 0 0 1-4.132-3.985l-.998-1.025a6.488 6.488 0 0 1-1.059-1.365 6.037 6.037 0 0 1-.769-3.515c.168-2.479 2.143-4.987 5.037-5.428a5.984 5.984 0 0 1 5.232 1.734l.759.745 1.596 1.544c-1.463-1.438-2.027-1.719-2.301-1.848-.037-.266 3.769 3.294 6.11 5.414 1.193 1.313-1.753-1.587-1.137-.796 16.318 16.989 29.944 28.739 46.478 45.333-4.721-4.739-6.966-6.07-7.203-5.934l4.625 4.642c2.015 1.558 5.493 5.038 8.573 7.777.271.442 1.595 1.95.043.614 4.346 4.808 8.129 8.174 12.198 11.77 2.034 1.798 4.141 3.653 6.425 5.775a179.167 179.167 0 0 1 3.572 3.409l.233.23.059.058.008.007.23.283.021.032.032.049.1.158.379.621.194.353.106.208.063.137.03.069.077.215.206.684c.348 1.373.247 2.65-.197 3.819l.038-.17c.028-.146.103-.323.177-.826.01-.097.039-.359.048-.571a6.582 6.582 0 0 0-.009-.707c-.013-.128-.047-.521-.098-.753-.022-.134-.058-.267-.089-.405-.057-.235-.102-.336-.143-.456a98.18 98.18 0 0 0-.129-.339l-.063-.161-.085-.224-.066-.133c-.087-.166-.164-.288-.237-.405l-.241-.367-.236-.335-.125-.175-.079-.111c-.351-.427-.1-.121-.18-.217l-.005-.004-.009-.008-.02-.017-.038-.033-.626-.546-2.663-2.325-7.253-6.332 3.04 3.682-6.392-5.553c3.314 3.82 7.001 6.338 7.083 7.114-.851-.656-2.636-2.503-2.88-2.374 3.289 3.56 3.817 3.571 6.458 6.079-7.487-6.079-20.775-19.389-28.106-26.375-1.182-1.071 1.134.794 1.405.922-2.944-2.897-4.478-4.87-8.276-8.424-2.581-1.985 1.522 1.961 3.304 3.804-.509.009-1.404-.917-3.462-2.896-.093-.784-10.955-11.2-13.135-14.222-10.891-10.673.831 2.618-9.545-8.057l-2.749-3.539a619.109 619.109 0 0 1-10.555-9.771 470.784 470.784 0 0 1-5.539-5.336l-2.567-2.522a2.41 2.41 0 0 0-1.582-.547s.243-.019.484.019c.243.03.47.116.47.116.343.016.307-.106.077-.289-.226-.18-.671-.326-.964-.374a2.648 2.648 0 0 0-1.509.395 2.77 2.77 0 0 0-1.028 1.129 2.829 2.829 0 0 0 .535 3.229l.744.725 1.509 1.508c.954.98 1.797 1.912 2.489 2.802 6.38 5.54 16.626 15.165 23.657 21.762 1.317 2.359-9.331-8.447-12.491-10.957l6.205 6.201c-3.842-3.827-5.554-5.143-8.148-7.145 5.34 5.532 7.583 6.865 12.868 11.886-.543-.259.059.516 2.432 2.897l1.021.329c.016.072.252.361.964 1.117l9.381 8.958c-1.798-2.094-1.591-2.488-3.955-4.861.644 1.047-1.405-.922-3.771-3.298 2.303 1.852-2.121-2.502-1.884-2.638 4.743 4.762 10.628 10.554 13.839 13.575l.693 1.331c2.225 2.305 4.576 4.608 6.745 6.731l3.076 3.027 1.361 1.37 1.427 1.474-.758-.589c-.35-.265-.587-.417-.602-.432 6.293 6.472 13.634 13.482 18.965 19.237l-2.501-.095c-3.97.257-8.908.493-13.956.732-4.863.239-10.893.48-12.998.75-2.996.582-20.113-.729-27.841.089-.521-.063 5.308-.438 7.945-.657-5.141-.09-9.228.633-10.839.021 11.535.206-.62-.488 4.576-.662-5.4.011-11.096.122-13.745.34 8.741-.005-3.104.846 5.745.579-6.857.515-16.215.72-24.386.521.08-.264-.927-.387-3.973-.496l-2.457.383c-3.823-.069 7.394-.453-.304-.589-7.92.655-23.85-.372-27.316.839-6.036-.478 11.486-.484 2.389-1.07 5.293-.438 12.593.063 14.337-.541-5.187.172-1.893-.511-5.239-.517l-5.785.373 1.279.023c-9.707.571-25.088.297-37.485.394-10.501.609-17.73 1.489-30.325 1.423 3.718-.357-10.461-.344-2.532-.999-5.828-.315-11.582.058-11.697.322 5.128.091 1.803.085 6.123.215-2.915.32-9.636.306-12.397.097 1.28.023.793-.038 1.075-.139-6.123-.215-2.935.318-7.359.452-1.404-.448-9.77-.12-13.811-.352l-5.859.639c3.22-.42-5.614-.153-6.538-.54-4.202.296-7.725.816-14.123.703 2.643-.219-5.838-.316-5.949-.742-10.957-.408-18.145 1.162-28.522.552.322-.1 2.417-.38-.617-.487-2.389.119-6.572.069-9.128.115l.081-.012a8.181 8.181 0 0 0-.133.012c-1.252.023-2.039.076-2.07.179-4.375.417-6.631.844-15.242 1.197.632.488 7.901.299 11.049.143l2.721-.482c2.6.736 7.765-.128 9.745.121-5.165.863-20.041.65-28.965 1.182 5.441.68 17.277.785 27.605.703l-4.549-.293 5.404-.009-5.23-.519c5.119.09 9.544-.043 14.17-.014-5.417.01-7.526-.662-4.462-.557 6.036.479 6.29-.313 10.904-.283-2.569-.044-5.909-.053-3.755-.332 9.097.585 11.554.205 19.827.83-1.025-.813 10.337-.08 11.576-.747l-3.839-.068 8.143-.492c7.514.662-6.653.676 4.781 1.145 10.551.082 10.278-.773 18.573-.836-2.733.482-9.311.895-16.004.881l4.053.232c-2.144.279-11.402.221-16.022.192 7.635-.554-3.573-.17-7.046-.603-.639.467 4.263.393-1.524.768 5.422-.01 6.215-.049 13.113.127-14.91-.211-13.407 1.619-26.421 1.227 5.999-.211-2.091-.672-2.813-.898-2.823.057-8.549.167-10.904.283l2.132.674c-7.582.291-10.216-1.135-18.966-.441-1.137.404 7.697.137 6.123.215-11.973.424-16.286-.662-26.917-1.168-.601.201-.477.629-4.195.984 1.168-.404-1.583-.611 2.6-.906-3.554-.172-7.765.125-10.901.283 7.399.236-3.027.58-4.391.822-3.833-.068 1.168-.402 3.526-.52-3.077-.109-6.733-.705-8.481-.1-.121-.426 8.602-1.119 14.306-1.23l-3.845-.068c2.649-.217 3.145-.156 6.962-.09-3.737-.33-3.368-.694-2.498-.997.49.062-.272.101.195.162 3.074.108 5.432-.008 4.719-.234 2.764-.572-4.264-.357-6.346-.643a5889 5889 0 0 1-4.691.114l-15.97 1.836c-6.823.215-9.891-.225-15.016-.502l-1.407.49c-5.937-.051-11.539-.205-7.734-.828.214.164.998.125 2.287.148.17-.066.468-.113.843-.152.124-.029.192-.058.294-.086l-10.693.281c10.795-.713.54-.892 2.346-1.763l-10.904.284c6.609.276.121.426-2.225.544-.162-.123-.792-.184-1.705-.208l-1.56-.01-.896.01-.47.008-.239.004h-.026l.108-.001-.03.001-.061.003-.121.005c.058.008-.002.018-.031.035a.551.551 0 0 0-.223.219c-.068.125-.067.207-.088.3l-.099-.036-.017.04-.002.005-.001.003v.001l-.002-.11-.001.088-.002.164c-.009-.125-.015-.034-.017-.015.001.06.006.126.039.193a.565.565 0 0 0 .471.327l.475-.002c.642-.009 1.281-.018 1.91-.025l3.578-.081c-.201-.165 5.463-.965 8.184-1.448-7.576-.184-3.08-.38-3.688-.684.784.027 2.194.033 2.358-.029 1.084-.139-1.472-.186-1.686-.348l-6.001.153-2.88.076-1.383.042-.674.022-.118 1.661c-.017.102-.006.027.015.008.021-.027.011-.008-.019.008-.028.018-.048.016.003.008l.023-.003c.01.011.027.058.036.086.007.179.065-.366.043-.09-.052 0-.082-.004-.103-.006-.083.078.089-.09-.008.042 0-.019.062-.087.021-.047-.016.013-.056.029-.043.024l.026-.005c.014-.004.033-.026.065.085.009.095.025-.072.04-.13l.011-.06.005-.03c.001-.03-.01.244-.006.128h-.026l-.073-.005c-.118-.042.085.065.008.015-.02-.021-.033-.084-.019-.016-.012.016.035.013-.036.039l-.074.024c-.025.006.08.017.113.024l.076.013.038.007.019.003c-.257 1.236-.068.343-.125.619h.165l.303.001 1.236.003 2.194.411 6.733-.222c-2.811.217-1.119.645-8.184.727.902.387 7.006-.088 11.332.043l2.212-.545c-.852.303 8.406.361 1.828.775l-10.703.445 2.975.373-9.047.104 2.135-.281-2.447.05-.529.007-.127.001-.063.001h-.016c.256-5.019.066-1.392.122-2.513l-.008-.001-.031-.005c-.061-.014-.218-.031-.195-.041a.392.392 0 0 0 .107-.041l-.003-.025-.004-.023a.311.311 0 0 0 .036.059.213.213 0 0 0-.062-.037l.034.006.097.006h.011l.006-.129-.001.006-.004.024-.018.098c-.012.062-.025.173-.034.093-.029-.1-.049-.093-.064-.083-.065.015 0 0 .026-.026.013-.011-.003.001-.02.032-.008.013-.012.028-.01.021l.007-.042.004-.044.026-2.065c4.58-.66 9.503-.73 18.471-.57-6.488.147-.667.465-3.108.847 6.619.275 8.853-.269 12.286-.525 1.686.348 2.885.633-3.027.582-.741.729 7.777-.126 8.316.625 19.586-.022 15.694-2.426 38.589-1.487l-.858.303c14.539-.377 22.926-.016 36.389-.254l10.6.771c-2.37.118-8.744.694-5.77 1.065-5.156-.779-10.628-.507-16.184-.925-.567.202 1.695.349 2.68.474-3.353-.007-5.035-.356-9.463-.221.214.161 5.044.354 1.404.449l-6.023-.479c-8.06.229-3.969 1.148-13.436.928 1.76-.428 5.354-1.047 9.02-1.149-4.326-.093 5.766-.259 1.819-.515-6.231.634-9.24.132-17.525.529.973-.088 1.23-.212 3.269-.251l-12.022-.268c2.975.371-9.931.407-8.812.958 12.813.229 9.047-.104 23.648.208-4.134.125-9.463.686-11.96 1.201-.127-.021-.338-.039-.787-.049-2.231.545.043.692 0 1.645 6.665-.678 11.121-.121 18.982-.511 1.478-.522-4.561-.665-8.469-.53l6.925-.346-1.363.241 17.578.174c-3.331.028-4.462.331-6.2.559 2.268.021 4.515.158 6.903.311-.502-.498-.186-.85 2.027-.841 11.31.118 17.596.565 21.77 1.135l1.317-.035c-1.896-.511 8.031-.917 11.536-1.439-.174.528 5.828.317 9.088.586 1.735-.606-.58-1.442-4.549-1.937-7.647.554-4.285.559-7.898 1.344l-12.267.524 2.742-.484c-6.123-.212-12.004.426-11.555-.203 3.235-.419 8.577-.165 11.787-.585l-4.05-.23c7.145-.618 3.662.595 12.313.164-3.182-.534.784-.038 4.49-.396-2.975-.372-15.232.152-12.633-.756 4.499-.396 15.136 1.064 21.089.162l-.292.103c8.781.117 11.868-.401 15.155-.728 3.737.294 8.896-.12 12.946-.153l-.099.264 5.714-.11c-2.721.481-6.696-.013-11.604.057l.61.491c-5.658-.583-9.432.303-13.819.726 6.386-.425 18.033.12 19.533-.839l3.95.495 1.89-.179c2.944.372-.062.955-5.769 1.066-.992-.124-1.487-.186-1.187-.288-2.649.219-5.082.6-11.493.487l3.421-.26c-7.981-.035-15.238.154-17.971.637 11.523.205 22.854.249 33.675.225 3.191-1.108 6.978-1.73 8.604-2.761 7.26-.19 17.116-.332 23.421.045l-.579.203c3.077.105 5.912.05 8.276-.067 3.25.271-2.225.545.04.691l10.399-.346c-.642.467-9.393.469-13.547.502.783-.04 2.367-.117 1.858-.18-4.833-.192-13.838.603-15.951-.072-2.354.117 4.784-.498-3.188-.533-5.339-.254-7.077.352-7.635.554-.087.265 8.378.362 5.441.681 4.155-.033 5.81-.374 11.124-.119-4.118.032-9.711.568-11.904.158-8.143.493-6.975 1.733-3.136 1.802-.914-.389 14.854-.479 4.177-.986 4.796-.5 13.559-.504 19.833-.816l-.285.1 7.79-.125c-1.097.139-3.452.257-3.529.52l10.789-.708c-6.073.476 3.765.33 6.528.54 1.156-.404 5.37-.7 1.326-.932-4.545-.293-2.646.219-6.779.25l5.854-.638.502.063 3.522-.522c7.973.037-3.482 1.213 6.733.703l-1.329-.711c11.827.105 27.016.905 35.373.577-2.306.404-3.322 1.055-.152 1.44-3.604-.123-10.845-.097-16.013-.03-.995-.125 6.457-.841 12.071-.688-2.721-1.164-14.123.703-14.783-.477-14.306-.412-10.671 1.137-22.814.444-.167.527-3.451.257-4.09.722 3.595.86 16.233-.029 24.112.271-.771.038-2.323.117-2.627.217 5.633.155 7.96.037 11.896-.158l-.496-.063c6.876-.515 4.254.393 8.301.625 1.568-.078 7.195.074 6.29-.313l7.328.5-.354-.588c4.134-.034 5.039.354 8.785-.004l.173-.526-10.266-.183c5.203-.172 1.45-.504 7.167-.615-6.386.576 4.518.292 5.147.781l4.204-.296-1.075.14c3.3.271 3.929-.196 7.78-.127-4.542-.293-7.517-.664-13.305-.29 4.214-.296 12.57-.624 14.622-.642 4.425-.221 7.514.181 11.653.24-7.944.211 2.782 1.596-13.138 1.218.294-.101 1.583-.078 2.082-.016-2.122-.673-9.543.042-12.995.299.89.388-2.721.483 3.399.698-2.008-.248 5.155-.864 10.978-.547l-1.025.83 8.478.098-.793.039c3.188.533 9.045-.104 14.882.211 4.214-.297 20.383-.061 13.426-.929 5.24.519 9.838-.142 15.555-.253l-7.126-.339c8.425-.593 5.998-.21 12.741-1.154.682.227 2.185.413.814.652l16.388.06 18.416-.011c-5.578 5.646-10.304 10.548-13.159 13.795a236.433 236.433 0 0 1-6.118 5.882l-2.52 2.309-1.153 1.042-.763.653c-2.058 1.774-4.363 3.87-8.186 7.964-1.585 1.749 1.847-.752-3.563 4.32-.396.31 4.611-5.479-1.179.403-3.705 4.607-10.013 9.514-15.028 15.313-3.018 2.692-7.91 7.707-7.235 6.318 4.604-4.44 10.929-10.915 11.732-12.062-.408.84 3.426-3.008.259.49 7.105-6.565 4.216-4.657 10.532-10.605.28-.566-3.548 2.758-4.734 4.2-.516-.459 11.856-12.328 5.821-7.461-6.596 6.511-7.525 9.473-13.718 14.639 1.98-2.573 5.792-5.883 8.172-9.286l-4.862 4.471-3.035 3.739.13-.273c-8.689 7.797-7.123 8.127-14.254 15.746 4.611-3.934-.143 1.834 3.279-1.174-4.87 4.994-8.557 8.552-9.077 8.097 8.828-9.624.008-1.039 8.051-10.056-1.574 1.226 1.318-2.744-3.819 2.285-5.379 6.075 2.12-1.307-3.431 4.565-.382.294-.776.601-.647.33-2.374 2.881-3.157 2.974-6.057 6.433l.656-.852c-2.107 1.813-3.096 2.968-4.019 4.053-.462.542-.907 1.066-1.469 1.646-.28.29-.59.593-.944.92l-.275.249-.144.128-.019.017-.003.002.058-.06-.004.004-.009.009-.037.033-.073.067-.064.059-.003-.004c-.004-.001-.002-.018-.025.007l-.115.091c.396-.088.27.181.237.512-.061.348.107.853.416.95-.199-.405.18-.846.414-.773.006.008-.072.093-.006.031l.087-.078.044-.039.022-.021.005-.005c.02-.019-.151.156-.078.081l.003-.002.012-.01.366-.315.77-.671 1.706-1.539a134.814 134.814 0 0 0 4.311-4.178c.528-1.102-.123-.767 2.51-3.677l-4.352 4.421c.9-.993 1.547-1.788 2.357-2.713l4.361-4.065c-5.137 5.547-2.382 3.403-4.354 5.971-5.014 4.763-3.955 4.112-7.122 7.093-.007-.046-.053-.052-.134-.021l-.067.029-.019.009-.01.006-.003.001a3.35 3.35 0 0 0 .078-.102l-.001.001-.005.003-.038.027c-.042.026-.144.105-.165.108.017-.025.061-.115.042-.116l-.041-.029a.247.247 0 0 0-.09-.038c-.132-.039-.308.136-.268.37.005.014.007.032.015.048l.004.014.001.001v.001l-.072-.07.018.02.036.038c.033.035.131.136.111.117a.302.302 0 0 0-.059-.039l.011.021c.01.015.018.031.028.044a.488.488 0 0 0 .167.153.737.737 0 0 0 .689.012l.073-.04.331-.304 1.282-1.178 2.379-2.173-2.629 2.595a22.99 22.99 0 0 0-.961 1.145c-.205.262-.118.22-.104.255-.002.051.173-.079.399-.268l.847-.735c1.302-1.164 3.115-2.877 3.249-2.896l2.77-3.189c-.532.59-1.21 1.464.121.252 3.955-4.111 3.305-4.293 7.253-8.399.533-.07-2.521 3.685.105 1.302 1.064-.661 4.351-2.874 9.497-8.429.291-.468 1.628-1.904 3.198-3.551-.211.236-.482.525-.567.643l3.807-3.302c-2.634 3.423-6.311 5.938-8.958 9.377l.117.634c-2.367 2.37-5.422 5.748-6.707 7.422 3.675-3.548 4.337-4.406 8.297-8.521.802-.329-1.865 2.691-2.25 3.126l.389-.815c-5.126 4.505-6.84 7.559-12.904 13.483-.92.89-.396.31-.265.037a78.965 78.965 0 0 1-3.484 3.763l-1.797 1.803c-.609.606-1.164 1.2-1.901 1.537-1.44.719-3.216.645-4.598-.162-1.393-.793-2.391-2.269-2.591-3.956 0 0 .08.553.279 1.055.193.507.493.939.493.939a4.917 4.917 0 0 1-.377-3.93c.234-.769.741-1.523 1.367-2.166l1.876-2.102 8.516-9.549-.096-.196c-.784.609 1.576-1.741 2.899-2.946l-.004.009 8.178-9.108a44.758 44.758 0 0 0-3.151 2.777c-.813 1.155-6.719 6.782-5.539 6.38-2.899 2.43-6.854 7.059-8.959 8.867 3.815-3.314-2.114 2.85-2.524 3.689-.361.237-.87.688-1.43 1.217-.286.274-.558.527-.877.858a5.88 5.88 0 0 0-.866 1.188c-.945 1.684-.734 3.329-1.008 2.907-.014.634-.089-.174.23-1.393.164-.605.454-1.3.863-1.933.195-.307.443-.634.678-.905.235-.27.397-.456.569-.682.856-1.01.841-1.104.403-.756-.219.174-.543.459-.916.797-.379.32-.975.947-1.34 1.578-.815 1.289-.978 2.795-1.017 3.321-.024.267-.057.304-.103-.015-.029-.314-.102-1.006.186-2.133a7.123 7.123 0 0 0 .193 4.462 7.019 7.019 0 0 0 1.194 2.021c.259.306.539.579.822.818.344.291.645.5 1.003.709a6.878 6.878 0 0 0 4.72.802 6.788 6.788 0 0 0 2.297-.889c.705-.407 1.358-1.092 1.712-1.464 3.409-3.492 6.833-7.018 9.731-10.221l-3.551 3.28c2.761-2.664 9.106-9.157 9.746-9.478-1.977 2.055-4.337 4.405-6.849 7.051.248.498 6.193-6.198 6.711-6.255l6.871-8.106-3.301 3.259c1.84-2.292 8.972-8.877 14.106-13.907-2.405 3.427-7.655 7.682-12.799 13.234-3.69 4.078 2.893-1.906-.662 1.893 1.072-.834 3.457-3.247 4.512-4.559l1.543-1.358c-2.815 3.744-10.272 10.993-14.768 16.287.38-.479.701-.906.783-1.096-3.948 3.589-7.769 7.424-11.32 11.221 2.09-1.797 2.76-2.666 3.816-3.83.127-.012-.665.861-1.636 1.918l-1.5 1.635-.709.784a9.295 9.295 0 0 1-1.045.944 8.723 8.723 0 0 0 1.094-.855l.509-.454c.272-.238.469-.401.612-.512.287-.221.36-.229.392-.2.063.059-.037.267 1.082-.776a77.433 77.433 0 0 1-1.553 1.67l-.385.4-.215.219c-.122.117-.241.237-.37.349a8.961 8.961 0 0 1-1.684 1.186c-2.43 1.315-5.727 1.632-8.827-.104-.759-.51-.914-.738-.813-.711.108.018.503.251 1.001.467.989.474 2.382.697 2.08.448a7.618 7.618 0 0 1-3.84-2.231 8.101 8.101 0 0 1-1.921-3.544 8.781 8.781 0 0 1 .054-4.493 8.74 8.74 0 0 1 1.598-3.138l.284-.336.218-.243.694-.774-.955.92c-.037.031-.2.21-.291.313l-.261.309c-.153.186-.28.362-.394.521-.44.64-.625 1.006-.706 1.088-.139.182.069-.804 1.002-2.102.566-.729.827-.999 1.202-1.456l1.137-1.327c.762-.884 1.483-1.723 1.918-2.226l-.928.896c1.455-1.994 2.907-3.469 4.346-4.414-2.115 2.337-4.346 4.414-3.438 4.055 1.458-1.481 2.912-2.959 4.495-4.707l-1.316 1.712 7.25-7.364c.915-1.398 2.506-3.673 3.162-5.041 1.972-1.534 4.229-4.157 5.809-5.904l-.673.874c3.43-3.017 10.428-10.36 10.818-11.179 2.494-2.112-14.915 17.638 1.163 1.163 6.186-6.189 3.172-4.536 6.468-8.305 0 0-.13.27.266-.036 2.758-2.659 2.77-3.19 4.886-5.525-1.727 1.52-4.085 3.868-4.744 4.725.53-1.101 5.665-5.614 7.515-7.914-2.253 3.133 5.402-5.066 3.538-2.751.708-.638 1.413-1.291 2.108-1.952l1.658-1.606a21.263 21.263 0 0 0 1.481-1.622c.835-1.021 1.228-1.749 1.224-2.069.898-.541 1.504-1.035 1.926-1.454-.614-.003-1.431.077-2.23.127-.815.051-1.594.071-2.496-.051.427.023 1.43-.094 1.97-.01 1.282-.248.601-.313-.092-.373-.648-.06-1.325-.113.59-.34-.797.078-.4.264.385.186 1.254-.057 2.927-.273 3.097-.5l-1.284-.219-1.467-.219 1.479-.119-2.582-.304a2559.89 2559.89 0 0 1-2.966-.304c-.204.1.351.225.611.285l-1.341-.043-1.652-.03-4.687-.029c-3.146.01-6.324.02-9.454.028-6.262.041-12.336.105-17.606.064-1.98 1.398-25.95.6-34.469 1.457 2.284-.4 3.533-1.107 2.12-1.398 1.899-.059 5.788-.623 10.095-.506.688.225 6.008.479 2.584.734 11.905-.158-1.611-.612 1.902-1.133-13.19.137-20.927.955-29.253 1.283l-.211-.164-6.287.313c5.138.092 4.884.885-1.738.607l.806-.039c-3.776-.333-11.635.059-17.534.006l-4 .459c-5.909-.053-6.163-.904-8.084-1.416-9.262-.06-14.61.64-21.188 1.055-2.975-.371-16.847-.459-9.497-.91-8.354.327-6.668 2.32-20.995 1.216l3.718-.358c-13.698.074-33.234.788-39.546.41 5.054-1.289-17.11-1.311-19.545-2.574.679.288-4.468.385-5.218.539-1.128-.148-3.006-.293-4.998-.031 5.342.254-3.755 1.311 6.457.801-5.168.867-11.827 1.543-23.149 1.5l.17-.527 8.958.16c-.905-.389 3.706-.359 5.596-.539-16.664-.295 2.182-1.233-14.854-1.164-1.645.342-.579.2-5.007.336 2.082-.018 2.457-.381-.899-.389l-3.222.422c-5.949-.879 9.847-.572 4.771-1.19 6.578-.414 17.972-.636 15.849-1.308-10.743-.244-9.665 1.26-20.896.954l-1.196-.286c-3.95.195-4.589.658-6.751.939-.195-.164-1.199-.285-3.737-.332-6.671.678-11.099.811-17.253 1.549 16.379-.555 14.002.516 30.908.021-2.649.219-14.551.379-15.282 1.107l.158-.529c-5.497.275-10.991.547-17.894.373l4.214-.297c-9.15.367-15.21-.801-22.43.076 2.55.047 4.62.031 6.194-.049-4.709.235-10.619.183-15.737.094l-10.591.871c.093-.262-6.619-.277-3.38-.695-7.625-.402-11.22.385-15.626.516-7.809-.561 6.764-.25 7.529-.979a408.02 408.02 0 0 0-15.874-.045 312.9 312.9 0 0 0-6.898.19l-2.945.14-1.315.079-.614.043c-.126.006-.141.016-.354.02-.188.003-.374.007-.559-.001l1.761.103 1.006.077c.526.052.765.106.709.17-.163-.082-1.328-.113-2.754-.124-1.32.016-2.95-.308-4.286-.953a9.958 9.958 0 0 1-3.274-2.479s-.612-.563-1.122-1.24c-.518-.669-.915-1.439-.915-1.439-.717-1.979-.651-3.476-.562-4.392.114-.923.275-1.303.311-1.228.048.075-.015.609.017 1.528l.007.177.002.045.002.143.002.012.006.048.029.219.059.538.081.474a9.87 9.87 0 0 0 .663 2.116 10.098 10.098 0 0 1-.648-2.804l-.036-.58-.001-.455a9.56 9.56 0 0 1 .2-1.838 9.758 9.758 0 0 1 2.979-5.256 9.439 9.439 0 0 1 5.699-2.455l.411-.021.196-.001.514.008.773.034c.512.029 1.017.073 1.513.135-.821.052-1.67.091-2.535.122l-.441.017-.301.02-.379.035a9.656 9.656 0 0 0-3.569 1.156 9.69 9.69 0 0 0-3.558 3.434 9.555 9.555 0 0 0-1.157 6.948 9.442 9.442 0 0 0 3.309 5.358c2.038 1.646 4.383 2.089 5.955 2.011a9.29 9.29 0 0 1-7.475-3.633c-1.559-2.007-2.07-4.472-1.868-6.461a9.099 9.099 0 0 1 8.785-8.267c.395-.015.219.004.596.003l1.585.085c1.096.054 2.282.1 3.617.131 2.67.063 5.938.068 10.29-.041.213.164-2.733.483.62.487 7.768-.126 2.029-.706 4.456-1.087-5.98.213-8.763.004-12.233-.429l1.596-.278c.242.145 3.997.152 5.103.292l.967-.567c-.446.627 5.562 1.105 10.284.871-4.772-.455-3.483-.431-4.781-1.146 6.64-.677 7.493.665 14.935-.052-.558.202-7.055.352-1.441.506 4.648.027 4.028-.461 7.146-.617-3.511.522-2.609.911-6.414 1.531-8.258.066-3.331-.007-11.403.221l6.833.442c-6.997.085-5.088.598-5.664.798 11.948.532 9.004-.794 16.692-.657 3.706-.358-7.201-.076-1.404-.451 7.188.076 1.639-.341 9.708-.568l-1.351.24c2.466.311 4.905-.072 7.758-.125 3.139-.158-3.554-1.816 9.352-1.852-.632.146-.864.238-.864.299l-12.589 4.391a2183.83 2183.83 0 0 1 43.286.405c3.566.858-10.808.708-9.881 1.095l-6.907-.176c.387-.364 14.47-.112 8.233-.755-12.196.261-17.73-.157-29.3.593 3.594.86 15.238-.153 22.765.512-3.16-.056-5.828.039-8.418.162l22.672.361 1.807-.208c-5.419-.097-9.168-.17-9.652-.201 7.185.075 13.246-.401 13.723-1.03l-1.276-.022 2.596-.196c1.696.032 3.382.072 5.058.112zm266.96-28.356c-.352-.267-.645-.46-.887-.577.252.121.086-.129.887.577zm-356.98 37.998l-14.369-.175-1.784-.024-.891-.012-.445-.006a3.518 3.518 0 0 1-2.506-1.1 3.472 3.472 0 0 1-.949-2.171 3.421 3.421 0 0 1 .66-2.271c-.984 1.06-1.162 2.788-.487 4.069.652 1.318 2.017 2.114 3.315 2.216 2.999.263 5.151.496 5.917.689.766.194.145.349-2.4.452l-2.279.069-1.441.022a5.464 5.464 0 0 1-1.765-.317 5.559 5.559 0 0 1-3.119-2.822 5.576 5.576 0 0 1 .163-5.103s.225-.458.536-.866c.306-.411.689-.759.689-.759a5.55 5.55 0 0 0-1.947 2.983 5.723 5.723 0 0 0 .61 4.325c.8 1.381 2.279 2.468 3.975 2.747.405.075.885.092 1.242.083l1.111-.01 2.217-.029c2.379-.22 7.409-.735 11.822-1.213l5.75-.647c1.49-.18 2.419-.308 2.377-.343-1.686-.348-4.143.031-7.207-.074l1.205.287zm6.814 2.084c5.432.139 4.195-.137 5.038-.385l-5.708.094c.722.063 1.078.151.67.291zm4.713-.632c-.61-.006-1.131-.018-1.404-.051l1.404.051zm31.888-10.119l-.558.015 3.911.058c-.521-.039-1.512-.07-3.353-.073zm-11.025-.608l-1.289.454 3.666.052c-.412-.205-.843-.384-2.377-.506zm-35.434-1.493c-2.234.545-9.717.57-10.176 1.199-.477.162 1.097.223 2.863.275l6.306.053c.078-.092.521-.177 1.261-.259-2.203-.079-3.675-.235-2.783-.622 5.665.843 5.076-.6 11.198-.384 1.949-.444-6.813-.44-8.669-.262zm337.096 48.477c-.162.084-.685.407-1.402.877l2.83-3.271c5.536-5.343 10.534-9.062 14.881-14.508 2.43-2.154 3.949-3.089 5.361-4.021a168.7 168.7 0 0 1-3.123 2.967c-12.924 14.535-8.007 6.311-18.547 17.956zm.478-37.218c.794-.039 1.078-.143 1.078-.143-17.19 1.154-31.345 1.49-40.612 1.445 1.797.457 10.11.813 14.059 1.002l-3.499.521-2.184-.41-6.073.474c1.697.351 6.603.278 9.881.548.285-.1 10.783-.709 13.717-1.029l-8.388-.361c2.266.146 13.393.025 17.805-.107.087-.262-7.518-.665-8.475-.098-.904-.387 7.861-.391 2.317-.807 6.569-.414 17.021-.068 21.87.123l.821.652c5.311.254 3.691-.785 9.473-.408-3.621.063-3.312.242-2.912.41.413.17.925.328-1.626.354 1.571.246-.028.689 4.615.641 2.34-.432 3.617-.297 4.577-.148 1.026.147 1.754.309 4.45-.072.863.121.121.239-.451.343-.582.104-1.013.191.178.255l-.776.725c-1.302 1.622-1.889 2.484-1.979 2.882-.103.408.282.36.669.419 1.479-1.399 2.362-2.376 2.932-3.104.575-.732.854-1.229 1.242-1.786-1.313.126-2.552.211-3.984.158 1.555-.146 3.109-.293 4.31-.293a78.454 78.454 0 0 1-2.41 3.518c1.626-1.411 2.702-2.465 3.446-3.271-1.341 1.43-2.291 2.605-3.048 3.673a56.574 56.574 0 0 1-1.313 1.764c2.897-2.892 5.586-5.569 7.55-7.434-1.409-.043-2.332-.107-2.521-.207l1.591-.305c-1.895-.28-6.5-.061-8.548.163-3.098.016-6.229.131-8.646.191-2.46.062-4.129.068-4.757-.129l2.153-.279c-6.979.087-7.757.126-16.532.13zm-228.672-.694c4.227 1.116 8.887 2.104 28.612 1.908l-1.552.076c9.94.701 19.381-.926 31.475-.148-5.869.422-5.553.383-12.032 1.346l6.296-.315c-1.745.608 4.536.294 9.156.322l-4.078.724c-2.773-.209-9.962-.283-9.751-.119 1.574-.08-9.491-.912-15.502-.702.62.489 13.312.292 7.644 1.092 4.995-.335 5.615.153 10.836-.019-5.007.336-1.24.668-4.967 1.024l8.562-.167c.223.164-12.469.363-5.454.965 3.43-.256 12.589.066 12.753-.461l.211.162c6.417.113 2.823-.747 10.702-.446.093-.265-1.41-.448-4.232-.394-2.386.117-2.751.48-7.666.554-2.203-.413 5.927.052 2.516-.646-1.695-.347-12.974.3-9.379-.483l6.404.113c.165-.529 4.803-.498 4.673-.924 3.917-.195 7.613.4 11.613-.06 1.661-.341-1.239-.976 5.379-.7 5.172.781 20.41.629 26.117.518l4.995-.336c-.425-.324-9.543.043-6.336-.377l7.789-.127-.601.203c2.581.045 5.221-.174 7.575-.289-2.426.38-8.04.227-6.925.777 3.656.107 4.214.313 7.579.207-.734.039-1.366.092-1.273.17 7.402.238 7.148-.615 9.004-.795 7.443-.715-7.501-.664-6.55-1.23l21.729-.303c-1.855.18-3.724.357-3.023.582 5.329.254.12.428 7.604.4-.533-.752 9.423-.469 14.709-.902 2.47.308 2.978.369-2.423.379.619.488 7.87.301 10.447.344 1.494-.121 4.041-.191 5.655-.301-2.163-.242-1.239-.549 3.442-.756l.272-.104c-7.675-.133-19.604-.666-24.416-.166l1.36-.242c-8.884-.422-19.332.877-23.428-.045.378-.365-1.785-.084-1.63-.611l-6.541.412 1.359-.24-11.126.119.294-.098c-5.288.491-9.431.877-12.741 1.186-.013.229.332.301-1.432.47a46.59 46.59 0 0 1-4.307.101c-.01.002-.01.002-.01.004v-.004c-2.729-.066-4.549-.396-7.91-.531l10.346-.057c.843-.391-.037-.797-5.106-1.07 2.073-.014 2.94-.318.375-.363-.282.102-6.779.249-4.304.561-9.828.143-25.74-.883-40.662-.141 10.721-.447-8.592-.523 3.309-.684-8.307-.625-7.148.615-15.616.518-.722-.225 4.61.029 6.556-.414-14.08-.25-23.756 1.01-37.377.82l-.583-.488-8.415.201zm-26.945.608c-2.621.055-5.28.11-7.982.168l.784.014-7.876.393c4.84.19 8.028.727 1.255.976.57-.202-1.41-.448.945-.566-4.539-.292-14.498-.575-11.901.161 8.723-.696 2.033.938 8.887.421-3.678.479-7.322.264-10.795.478 3.616-.4-.843-.909-6.274-1.101-2.364.118-8.763.005-12.691.2 1.4.449-2.021.707 4.381.82a95.153 95.153 0 0 1-10.055-.02c1.615-.076 4.438-.133 4.242-.295-2.627-.414-5.705-.396-7.402-.573l-4.05.072c.396.04.74.091.985.155l-4.499.396c5.992-.211 2.77.209 2.692.473.161-.527-3.857-.068-5.909-.051l4.456.557c-2.153.279-7.604-.402-6.479.148 9.454.221 13.088.127 21.637-.039l-3.471-.434c9.646-.306 5.949.742 16.772.722 4.499-.396 16.277-.027 16.5-.819-1.357.242 6.74.705 10.448.346 4.1-.723 16.497-.82 12.741-1.15-3.349-.01-7.857.389-10.55-.082l6.498-.151-4.264-.394c2.202.14 1.988-.245.975-.825zm-63.084-3.9l.251.01-.279-.002.028-.008z"/><path d="M402.826 314.739c1.194-1.448 4.481-4.694 3.568-4.329.381.223-5.79 5.883-3.568 4.329zM407.029 311.127c.157-.302-.117-.257 1.338-1.733l-3.96 4.112 2.622-2.379zM413.182 309.092c1.857-2.307 3.05-3.752 6.337-6.999 1.962-.491-5.144 5.554-5.938 7.721 6.057-5.919 7.253-8.399 12.116-13.387-2.748 2.133-12.894 11.926-12.515 12.665zM411.451 312.679l3.164-3.496-.371.286-3.167 3.499zM410.281 302.965c.53-.07 2.379-2.371 3.437-3.54-.921.89-2.248 2.096-3.437 3.54zM392.686 190.962l-12.812-12.59-1.2-1.179-.597-.586-.297-.292-.588.516c-.14.099-.013.016.001.031.024.008-.083-.02-.059-.014 0 .005.031.01.039.04-.002.042-.115.167.039.046l.072-.051.036-.025.009-.006c.093-.074-.115.093-.096.076l-.003-.002-.022-.024c-.059-.064-.063-.079-.064-.082a.252.252 0 01.02.076c-.001.005.003-.031.011-.052.021-.046-.008.007-.009.005.039-.087-.021.104-.003.036 0-.02-.02-.069-.018-.063.002.003.012.021.044.058.009-.001.046.077.056.032-.226.188-.026-.054-.074-.037-.12-.065.08.01.016-.012-.019 0-.072.021-.058.016.008-.005.033-.02.081-.064l.021-.019.009-.009.002-.002c.979-.975.274-.267.495-.483l.006.006.023.023.188.185.378.373c4.058 3.977 8.625 8.456 14.354 14.073zM378.704 257.457c9.646-.306 13.931-.865 23.76-1.008-12.924-.654-17.07 1.022-27.921.352l4.161.656zM382.107 254.866c1.599.612-7.442.717-6.042 1.166 6.5-.149 3.027-.583 8.927-.53l-2.885-.636zM425.147 264.98l-.792.158-1.462.16 1.177-.059.398-.021.185-.019.181-.019.313-.2zM338.145 255.409l1.065-.138-4.837-.194zM340.277 255.13l-1.066.141 1.066-.141zM422.059 266.293l2.174.064.203.007.07.006.135.012a38.628 38.628 0 00.462.042c-.021 0 .849-.281.87-.281l-1.22.074-.221.015-.417.014-1.041.023-1.015.024zM383.69 263.01l3.889-.195c-.772.036-6.092-.216-3.889.195zM308.606 255.149l-4.732.235.484.061 4.716-.235zM353.25 264.697c2.687.47-7.759.127-2.231.543 4.918-.073 2.922-.318 2.231-.543zM296.159 261.508c-.639 0-1.311.016-1.958.068l1.958-.068zM296.159 261.508c2.061 0 4.121.18 5.534.043-2.569-.213-3.504-.133-5.534-.043zM272.552 261.617l1.868.033c-1.909.232-1.004.197.7.012 1.979-.017 1.868-.166 2.104-.268l1.218-.182-1.623.17c-3.068-.003-4.94.019-4.267.235zM184.854 253.691c6.9.175 8.685.26 8.31.625 6.55.116 5.534-.512 9.485-.658-7.412.07-8.927-.098-17.795.033zM202.649 253.657l2.587-.029a54.947 54.947 0 00-2.587.029zM300.144 265.608l-4.288.559 1.574-.077zM174.613 253.507c1.28.023 3.331.007 4.338.132.369-.366-5.614-.154-4.338-.132zM201.226 260.666c.7.223 5.116.09 6.913.176-2.578-.047-4.678-.721-6.913-.176zM154.817 255.013c1.28.023 3.247.269 2.395.571 1.859-.178 4.375-.823-2.395-.571zM188.615 260.599l.986.125 4.722-.234zM205.459 265.992c5.311-.436-8.425-1.051.722-1.42-11.799-.457.905.617-7.799.546 5.097.147 7.594.698 7.077.874zM198.382 265.118a88.002 88.002 0 00-2.414-.038l2.414.038zM123.636 262.361a37.067 37.067 0 001.785-.148c-.608.037-1.187.082-1.785.148zM170.585 265.478l7.96-.654c-5.317.436-18.693.408-17.86 1.06 4.332.132 9.543-.04 11.685-.321l-1.785-.085zM79.216 253.667l3.439-.258-4.294-.076c1.229.098-.996.576.855.334z"/><path d="M77.53 253.32l.831.014a7.593 7.593 0 00-.831-.014zM138.692 262.045c2.572.047 4.629.029 6.975-.088-.973-.123-7.381-.238-6.975.088zM55.688 255.999l.003-.029.003-.047V254.601h.044l.047-.001.098-.002 1.952-.039 2.838-.056-3.097.024a2267.976 2267.976 0 00-1.66.013l-.123.001h-.097l-.001 1.349v.002l-.001.046c-.006.095-.012.088-.011.093l.005-.032zM67.173 258.492l.979.123 4.707-.233-.995-.122zM63.153 266.324c3.848.068 6.854-.516 5.847-.64l-7.461.026c1.896.512 2.07-.016 6.396.113l-4.782.501zM263.781 257.535c-1.667.342-9.829.145-10.256-.181 1.097-.142 5.522-.276 2.742-.483l-6.458.84c-8.589-.523 6.529-1.104 10.771-1.4-8.75-.108-11.344.444-20.652.441 2.746.074 4.48.284 5.931.465.316.59-8.356.328-14.557.375 3.947.258 1.664.474-1.211.705-.518.02-.862.053-1.106.092l-.976.084.744-.002c-.053.066.112.146.647.256 5.203-.172 9.181.322 12.531.33-3.309-.961 11.406-.223 15.617-.518l4.861-.096 1.819-.002c.365.105-.152.238-2.926.428 2.315-.189 10.033-.123 9.32-.432l17.615-.014a16.52 16.52 0 011.503.158c.61-.061.713-.111.633-.16l76.747-.061c-3.786-.076-7.062-.295-10.966-.402 5.859-.638-6.401-.115-4.682-.719 2.634-.219 6.488-.15 8.784-.003.855-.305-2.417-.575-2.039-.939-9.68-.383-11.16 1.075-20.623.854.374-.365 3.3-.685-2.895-.636l1.574-.079c-9.919.409-7.728-.826-13.972.175l.164-.527c-4.499.397-13.252.4-18.185.472l.294-.101c-13.838.603-7.768.128-23.307.38l7.151-.615c-5.36-.254-6.569.415-10.418.345.276-.101-.616-.487 3.019-.583l-18.854.938c-4.497.401.916.39 1.616.615zM239.928 256.752a76.831 76.831 0 00-3.47-.02l3.47.02zM372.512 258.355l-5.392.006c1.67.031 3.411.041 5.392-.006zM212.903 257.902c3.269.273-2.448.382-3.018.584l11.709-.01c-.053-.203 1.106-.43.871-.615l-9.562.041zM224.985 258.859c.396-.141 1.636-.268 3.024-.387l-6.414.004c.04.153.759.291 3.39.383zM223.745 248.019l2.073-.018 3.136-.157zM256.165 248.912c-2.476-.308-7.173-.074-8.744.004 5.413-.01 3.068.108 8.744-.004zM249.475 245.612l5.218-.174-.486-.061zM412.363 256.281l2.55-.034a65.308 65.308 0 00-2.55.034z"/><path d="M367.588 256.783c12.447.592-8.155.492-4.245 1.25l6.773-.25-.576.203 8.261-.066c-1.694-.349-2.969-.37-2.6-.736 11.027.143 3.477.434 11.566.895l12.326-.066-.997.109c1.038-.008 1.496-.053 1.853-.113l55.64-.227c6.587-.146 4.2-.31 1.494-.505-2.755-.195-5.752-.422-1.636-.69l-24.035-.102-5.189.016-2.072.026-1.188.041c-1.462.066-2.415.179-2.601.361.294-.102.874-.303-.901-.389l-5.066.6 4.831.191c-5.095.598-21.545.465-24.52.094 9.354-.203 4.661-.924 17.693-.532-.586-.185-2.972-.51-.037-.611-15.269.21-28.956-.122-44.774.501zM393.963 193.046l.132.039c-.22-.17-.302-.215-.132-.039zM397.523 196.734l5.768 4.757-8.245-8.165-.95-.242c.814.635 3.871 3.333 4.848 4.586l-1.421-.936zM409.707 207.297c-4.389-4.087-4.575-3.439-2.454-.938-4.085-3.697-1.604-2.501-4.725-4.74-.214.389 4.76 5.008 5.917 6.055l1.262-.377zM445.386 243.415l-2.411-2.065 4.952 5.044zM442.975 241.35l-4.96-5.053c.175.432.341.848 1.005 1.687l3.955 3.366zM428.993 227.036a325.074 325.074 0 00-4.192-4.325l4.192 4.325zM432.22 230.475l-.044-.153-3.183-3.286c1.155 1.229 2.19 2.333 3.227 3.439zM438.015 236.298c-.213-.505-.467-1.059-1.653-2.451a43.07 43.07 0 00-1.078-1.214l-.962-1.053a69.264 69.264 0 00-2.524-2.536l.379 1.278 5.838 5.976zM287.426 246.235l4.713-.234-.499-.064-4.71.234zM314.619 246.612a80.345 80.345 0 002.851-.227c-1.228.045-2.203.114-2.851.227zM334.834 243.789c5.543.416-7.647.55 2.618.734.904.387-3.907.886-8.741.693.384-.364 4.71-.233 1.738-.605-3.21.421-4.431.134-3.313.683-5.4.342-6.002.732-9.667 1.09 6.528-.242 20.236.322 28.521-.383 4.567-.66 1.797-1.561 1.815-2.514-.686-.223-12.525-.329-12.971.302zM326.112 242.838c-2.565-.047-3.35-.009-4.924.07.425.327 2.85-.055 4.924-.07zM385.071 250.015c.489-.136 5.131-.304 4.133-.538l-7.036.171c1.651.023 2.233.188 2.903.367zM379.081 249.721l3.086-.073a48.582 48.582 0 00-3.086.073zM385.405 250.099l-.334-.084c-.1.028-.081.058.334.084zM417.087 214.793c.255-.115-2.072-2.222-3.24-3.28.889.921 2.099 2.252 3.24 3.28zM410.334 210.564l1.812 2.105c-.605-.78-.916-1.178-1.812-2.105zM445.573 235.698c.093.021.269.135.491.302-.217-.171-.384-.276-.491-.302zM446.065 236.001c1.492 1.185 5.386 5.557 7.105 6.808l-.26-.117 2.904 2.626c-2.613-2.572-8.024-8.04-9.749-9.317z"/></g></svg>